<svg width="140" height="40" viewBox="0 0 140 40" fill="none" xmlns="http://www.w3.org/2000/svg">
<g clip-path="url(#clip0_1_163)">
<g clip-path="url(#clip1_1_163)">
<g clip-path="url(#clip2_1_163)">
<mask id="mask0_1_163" style="mask-type:luminance" maskUnits="userSpaceOnUse" x="0" y="0" width="140" height="33">
<path d="M139.981 0.520004H0.0186157V32.49H139.981V0.520004Z" fill="white"/>
</mask>
<g mask="url(#mask0_1_163)">
<path d="M17.3226 12.173C17.3226 5.73845 22.5389 0.522163 28.9735 0.522163H32.0027V20.8413C32.0027 27.2759 26.7864 32.4922 20.3518 32.4922H17.3226V12.173Z" fill="#FFCF33"/>
<path d="M0.0325623 10.4953C0.0325623 16.9299 5.24885 22.1462 11.6834 22.1462H14.7127V12.173C14.7127 5.73845 9.49639 0.522163 3.06179 0.522163H0.0325623V10.4953Z" fill="#FFCF33"/>
<path d="M14.7126 22.0613L0.121094 0.522163H3.0617C9.49631 0.522163 14.7126 5.73845 14.7126 12.173V22.0613Z" fill="#FFD755"/>
<path d="M54.9073 17.8121C61.3422 17.8121 66.5585 23.0283 66.5585 29.4629V32.4922H46.2393C39.8047 32.4922 34.5884 27.2759 34.5884 20.8413V17.8121H54.9073Z" fill="#4FA58C"/>
<path d="M62.2999 32.4921L52.3554 17.812H54.9073C61.3418 17.812 66.5581 23.0283 66.5581 29.4629V32.4921H62.2999Z" fill="#6CB49F"/>
<path d="M54.9073 15.2023C61.3422 15.2023 66.5585 9.98599 66.5585 3.55141V0.522186H46.2393C39.8047 0.522186 34.5884 5.73845 34.5884 12.1731V15.2023H54.9073Z" fill="#492B7C"/>
<path d="M50.5872 15.2023L41.3644 1.58794C42.8475 0.903807 44.4988 0.522186 46.2392 0.522186H66.5585V3.55141C66.5585 9.98599 61.3422 15.2023 54.9073 15.2023H50.5872Z" fill="#674E92"/>
<path d="M120 17.8214V32.49H116.411V31.2391C115.71 32.073 114.66 32.49 113.259 32.49C112.28 32.49 111.388 32.265 110.582 31.8149C109.775 31.3516 109.134 30.6964 108.658 29.8492C108.196 29.0021 107.964 28.0225 107.964 26.9106C107.964 25.7987 108.196 24.8258 108.658 23.9919C109.134 23.1447 109.775 22.4961 110.582 22.0461C111.388 21.596 112.28 21.371 113.259 21.371C114.541 21.371 115.532 21.7416 116.233 22.4829V20.1251C116.233 18.8528 117.264 17.8214 118.537 17.8214H120ZM114.052 29.4918C114.699 29.4918 115.235 29.2668 115.658 28.8167C116.08 28.3535 116.292 27.7181 116.292 26.9106C116.292 26.1164 116.08 25.4943 115.658 25.0442C115.248 24.5942 114.712 24.3691 114.052 24.3691C113.391 24.3691 112.849 24.5942 112.426 25.0442C112.003 25.4943 111.791 26.1164 111.791 26.9106C111.791 27.7181 112.003 28.3535 112.426 28.8167C112.849 29.2668 113.391 29.4918 114.052 29.4918Z" fill="black"/>
<path d="M104.076 22.844C104.464 22.3452 104.966 21.9744 105.581 21.7317C106.21 21.4756 106.926 21.3475 107.729 21.3475V24.8055C107.381 24.7651 107.094 24.7448 106.866 24.7448C106.049 24.7448 105.407 24.9673 104.939 25.4122C104.484 25.8571 104.256 26.5379 104.256 27.4546V32.49H100.442V21.3475H104.076V22.844Z" fill="black"/>
<path fill-rule="evenodd" clip-rule="evenodd" d="M89.836 31.7633C90.6065 32.2478 91.4791 32.49 92.4528 32.49C93.1655 32.49 93.8125 32.3506 94.394 32.0716C94.7697 31.8914 95.0964 31.6684 95.3752 31.4025V32.49H98.9846V21.3475H95.3752V22.4565C95.0875 22.179 94.7532 21.9488 94.3719 21.7659C93.8049 21.487 93.1655 21.3475 92.4528 21.3475C91.4791 21.3475 90.6065 21.5897 89.836 22.0742C89.08 22.5587 88.4768 23.2193 88.0264 24.0561C87.5901 24.8929 87.3719 25.8471 87.3719 26.9188C87.3719 27.9904 87.5901 28.9447 88.0264 29.7814C88.4768 30.6183 89.08 31.2789 89.836 31.7633ZM94.852 28.7465C94.4157 29.2163 93.8416 29.4512 93.1289 29.4512C92.6785 29.4512 92.2713 29.3411 91.9079 29.1208C91.5445 28.9006 91.261 28.5997 91.0574 28.218C90.8538 27.8363 90.7523 27.4032 90.7523 26.9188C90.7523 26.4196 90.8538 25.9792 91.0574 25.5975C91.2755 25.2158 91.559 24.9222 91.9079 24.7167C92.2713 24.4965 92.6855 24.3864 93.151 24.3864C93.6159 24.3864 94.0231 24.4965 94.3719 24.7167C94.7354 24.9222 95.0118 25.2158 95.2008 25.5975C95.4044 25.9792 95.5059 26.4196 95.5059 26.9188C95.5059 27.6528 95.2878 28.262 94.852 28.7465Z" fill="black"/>
<path d="M81.307 32.49C79.8293 32.49 78.4998 32.1811 77.3174 31.5632C76.149 30.9318 75.2285 30.0587 74.5571 28.9437C73.8853 27.8288 73.5496 26.5662 73.5496 25.1557C73.5496 23.7453 73.8853 22.4826 74.5571 21.3677C75.2285 20.2527 76.149 19.3864 77.3174 18.7684C78.4998 18.1371 79.8293 17.8214 81.307 17.8214C82.5966 17.8214 83.7584 18.0498 84.7927 18.5065C85.827 18.9632 86.6869 19.6214 87.3719 20.4811L84.8331 22.7781C83.9196 21.6766 82.8115 21.1259 81.5087 21.1259C80.7428 21.1259 80.0578 21.2938 79.4532 21.6296C78.8623 21.9654 78.3987 22.4423 78.063 23.0602C77.7405 23.6647 77.5792 24.3632 77.5792 25.1557C77.5792 25.9482 77.7405 26.6535 78.063 27.2714C78.3987 27.8758 78.8623 28.346 79.4532 28.6818C80.0578 29.0176 80.7428 29.1855 81.5087 29.1855C82.8115 29.1855 83.9196 28.6348 84.8331 27.5333L87.3719 29.8303C86.6869 30.69 85.827 31.3482 84.7927 31.805C83.7584 32.2617 82.5966 32.49 81.307 32.49Z" fill="black"/>
<path fill-rule="evenodd" clip-rule="evenodd" d="M136.321 15.1416L139.988 3.90857H136.597L134.572 10.2669L132.6 3.90506H129.392L127.367 10.2083L125.413 3.90857H121.781L125.447 15.1416H129.06L130.918 9.49553L132.707 15.1416H136.321Z" fill="black"/>
<path d="M115.886 15.1886C114.688 15.1886 113.606 14.9404 112.642 14.444C111.678 13.9476 110.92 13.2582 110.369 12.3758C109.831 11.4933 109.563 10.4936 109.563 9.37673C109.563 8.27367 109.831 7.28091 110.369 6.39844C110.92 5.51598 111.671 4.83344 112.621 4.35084C113.585 3.85446 114.674 3.60626 115.886 3.60626C117.099 3.60626 118.187 3.85446 119.152 4.35084C120.116 4.83344 120.867 5.51598 121.404 6.39844C121.941 7.26709 122.21 8.2599 122.21 9.37673C122.21 10.4936 121.941 11.4933 121.404 12.3758C120.867 13.2582 120.116 13.9476 119.152 14.444C118.187 14.9404 117.099 15.1886 115.886 15.1886ZM115.886 12.0655C116.575 12.0655 117.14 11.8311 117.581 11.3623C118.022 10.8797 118.242 10.2178 118.242 9.37673C118.242 8.54941 118.022 7.90136 117.581 7.43258C117.14 6.96375 116.575 6.72933 115.886 6.72933C115.198 6.72933 114.632 6.96375 114.192 7.43258C113.751 7.90136 113.53 8.54941 113.53 9.37673C113.53 10.2178 113.751 10.8797 114.192 11.3623C114.632 11.8311 115.198 12.0655 115.886 12.0655Z" fill="black"/>
<path d="M98.7862 0.520004H100.409C101.681 0.520004 102.713 1.55141 102.713 2.82372V15.1886H98.7862V0.520004Z" fill="black"/>
<path d="M104.532 0.520004H106.155C107.427 0.520004 108.458 1.55141 108.458 2.82372V15.1886H104.532V0.520004Z" fill="black"/>
<path d="M97.7142 9.4181C97.7142 9.4457 97.6935 9.76973 97.6521 10.3902H89.5101C89.6756 10.9693 89.9925 11.4174 90.4608 11.7346C90.9432 12.0379 91.5426 12.1896 92.2586 12.1896C92.796 12.1896 93.2577 12.1137 93.6432 11.9621C94.0428 11.8104 94.4425 11.5622 94.8421 11.2175L96.9084 13.3685C95.82 14.5819 94.229 15.1886 92.135 15.1886C90.8261 15.1886 89.6756 14.9404 88.6836 14.444C87.6916 13.9476 86.9201 13.2582 86.3691 12.3758C85.8317 11.4933 85.5633 10.4936 85.5633 9.37673C85.5633 8.27367 85.8251 7.28777 86.3484 6.41913C86.8858 5.53666 87.623 4.84722 88.5595 4.35084C89.4965 3.85446 90.5506 3.60626 91.7217 3.60626C92.8374 3.60626 93.8501 3.84067 94.7593 4.30948C95.6686 4.7645 96.3851 5.43323 96.9084 6.3157C97.4458 7.18439 97.7142 8.21852 97.7142 9.4181ZM91.7419 6.39844C91.1359 6.39844 90.6263 6.5708 90.213 6.91551C89.8134 7.26022 89.5586 7.72901 89.4486 8.32191H94.0358C93.9258 7.72901 93.6639 7.26022 93.2506 6.91551C92.851 6.5708 92.3484 6.39844 91.7419 6.39844Z" fill="black"/>
<path d="M81.8425 9.80654V15.1789H77.7508V9.74448L72.2332 0.520004H75.6714C76.2177 0.520004 76.7236 0.807379 77.0038 1.27658L79.9826 6.26981L82.9615 1.27658C83.2417 0.807381 83.7476 0.520004 84.2939 0.520004H87.3808L81.8425 9.80654Z" fill="black"/>
</g>
</g>
</g>
</g>
<defs>
<clipPath id="clip0_1_163">
<rect width="140" height="31.97" fill="white" transform="translate(0 0.520004)"/>
</clipPath>
<clipPath id="clip1_1_163">
<rect width="140" height="31.97" fill="white" transform="translate(0 0.520004)"/>
</clipPath>
<clipPath id="clip2_1_163">
<rect width="139.963" height="31.97" fill="white" transform="translate(0.0186157 0.520004)"/>
</clipPath>
</defs>
</svg>
