<svg width="100" height="44" viewBox="0 0 100 44" fill="none" xmlns="http://www.w3.org/2000/svg"><path d="M.717 39.919h.97v-6.731H.703v-1.036h2.11v3c.663-.706 1.43-1.041 2.376-1.041 2.01 0 3.448 1.535 3.448 3.5 0 1.985-1.467 3.51-3.486 3.51-.908 0-1.616-.32-2.318-1.034v.888H.717v-1.056zm4.412-4.72c-1.246 0-2.316 1.031-2.316 2.448 0 1.33 1.07 2.382 2.3 2.382 1.254 0 2.321-1.004 2.321-2.443 0-1.392-1.067-2.386-2.305-2.386zm4.968 6.881h1.043l.523-1.306-2.161-5.45H8.62v-1.053h2.977v1.054h-.919l1.564 3.98 1.575-3.98h-.915V34.27h2.965v1.054h-.87l-2.68 6.755h.928v1.05h-3.15v-1.05zm12.754-5.526h5.36v4.42h-.953v-1.392c-.97 1.056-2.076 1.567-3.409 1.567-2.645 0-4.52-2.067-4.52-4.646 0-2.384 1.913-4.53 4.635-4.53 1.017 0 1.828.285 2.686.921v-.742h.965v2.366h-1.091c-.76-.88-1.586-1.306-2.629-1.306-1.886 0-3.277 1.53-3.277 3.33 0 1.935 1.44 3.387 3.261 3.387 1.37 0 2.598-.904 3.007-2.31h-4.035v-1.065zm13.174 2.298c-.57 1.463-1.8 2.28-3.274 2.28-1.962 0-3.5-1.55-3.5-3.501 0-1.993 1.625-3.54 3.463-3.54 1.96 0 3.523 1.53 3.523 3.59 0 .1 0 .226-.023.386h-5.736c.186 1.193 1.135 1.975 2.258 1.975.847 0 1.564-.41 1.974-1.19h1.316zm-1.027-1.738c-.302-1.242-1.146-1.95-2.247-1.95-1.116 0-2.053.758-2.273 1.95h4.52zm2.628-1.806h-1.033v-1.037h1.033v-2.12h1.127v2.12h.992v1.037h-.992v4.61h.992v1.057h-2.119v-5.667zm3.757 0h-1.028v-1.037h1.028v-2.12h1.13v2.12h.988v1.037h-.987v4.61h.986v1.057h-2.117v-5.667zm4.262 6.772h1.044l.525-1.306-2.164-5.45h-.879v-1.053h2.977v1.054h-.92l1.563 3.98 1.582-3.98h-.921V34.27h2.971v1.054h-.873l-2.685 6.755h.937v1.05h-3.157v-1.05zm9.174-2.173h.98v-6.695h-.98v-1.06h3.215v1.06h-1.01v6.694h1.01v1.069h-3.215v-1.069zm4.155.012h.955v-4.61h-.945V34.27h2.06v.953c.414-.722.995-1.063 1.827-1.063.98 0 1.696.468 2.104 1.335.521-.915 1.16-1.347 2.064-1.347 1.652 0 2.408 1.201 2.408 2.862v2.908h.968v1.056h-3.056v-1.056h.957v-2.97c0-1.13-.521-1.736-1.448-1.736-1.069 0-1.64.793-1.64 2.373v2.333h.972v1.056h-3.033v-1.056h.966v-2.224c0-1.574-.173-2.482-1.487-2.482-1.017 0-1.601.793-1.601 2.373v2.333h.97v1.056h-3.04v-1.056zm17.592.168c-.706.714-1.417 1.035-2.31 1.035-2.034 0-3.487-1.526-3.487-3.511 0-1.965 1.401-3.492 3.44-3.492.955 0 1.72.312 2.386 1.033v-.881h2.067v1.037h-.951v4.599h.962v1.068h-2.107v-.888zM74.272 35.2c-1.24 0-2.31.993-2.31 2.386 0 1.44 1.07 2.443 2.317 2.443 1.227 0 2.297-1.044 2.297-2.382 0-1.417-1.07-2.447-2.304-2.447zm6.656 6.169c.238.711.87 1.091 1.814 1.091 1.195 0 2.198-.858 2.247-2.095l.01-.336c-.668.745-1.403 1.079-2.329 1.079-1.986 0-3.45-1.502-3.45-3.497 0-1.925 1.415-3.5 3.412-3.5.964 0 1.736.346 2.383 1.102v-.942h2.071v1.054h-.954v4.547c0 2.303-1.33 3.571-3.39 3.571-1.628 0-2.69-.695-3.124-2.074h1.31zm4.087-3.71c0-1.414-1.057-2.46-2.299-2.46-1.236 0-2.305 1.005-2.305 2.398 0 1.453 1.078 2.445 2.305 2.445 1.23 0 2.299-1.057 2.299-2.384zm9.268 1.193c-.572 1.463-1.797 2.28-3.277 2.28a3.476 3.476 0 0 1-3.504-3.5c0-1.994 1.63-3.54 3.469-3.54 1.96 0 3.525 1.528 3.525 3.59 0 .1 0 .225-.024.385h-5.74c.191 1.193 1.135 1.975 2.262 1.975.847 0 1.564-.41 1.97-1.19h1.32zm-1.03-1.738c-.296-1.242-1.142-1.95-2.247-1.95-1.116 0-2.049.758-2.274 1.95h4.52zm1.933 1.748h1.12c0 .647.556 1.296 1.389 1.296.704 0 1.12-.378 1.12-1.025 0-.716-.538-.98-1.716-1.217-1.5-.305-1.824-1.087-1.824-1.899 0-1.116.79-1.935 2.059-1.935.55 0 .98.189 1.341.583v-.407h.93v1.786h-1.033c-.156-.657-.53-.953-1.164-.953-.619 0-.968.307-.968.83 0 .743.607.883 1.651 1.15 1.303.352 1.909.898 1.909 1.99 0 1.254-.872 2.088-2.258 2.088-.634 0-1.114-.2-1.538-.663v.497h-1.018v-2.12zM5.555 26.859H.742V8.891h4.813v17.968zm4.62-6.928c1.484 1.628 3.742 2.852 6.112 2.852 2.223 0 3.779-1.372 3.779-3.26 0-3.333-4.814-3.74-8.297-5.777C9.733 12.559 8.1 10.78 8.1 7.852 8.1 3.223 12.364.557 16.66.557c2.629 0 5.074.63 7.52 2.445l-2.592 3.703c-1.04-.963-2.78-1.701-4.485-1.701-1.887 0-4 .812-4 2.812 0 4.188 11.966 2.889 11.966 11.634 0 4.591-4.114 7.777-8.781 7.777-3.481 0-6.704-1.442-9.371-3.89l3.26-3.406zm29.85 6.928c-.628.22-2.075.368-3 .368-2.89 0-5-.963-6.224-2.593-.925-1.222-1.334-2.813-1.334-5.371v-6.297h-5V8.89h5V3.89h4.816v5h5.928v4.076h-5.928v6.85c0 1.116.184 1.78.593 2.263.48.557 1.257.888 2.443.888.705 0 1.633-.107 1.966-.184l.74 4.076zM50.706 8.52c5.443 0 9.556 4.187 9.556 9.374 0 5.185-4.113 9.333-9.556 9.333-5.444 0-9.558-4.148-9.558-9.333 0-5.187 4.114-9.374 9.558-9.374zm0 14.263c2.815 0 4.74-2.186 4.74-4.89 0-2.705-1.925-4.927-4.74-4.927-2.817 0-4.741 2.222-4.741 4.928 0 2.703 1.924 4.89 4.741 4.89zm28.572.408c-2.114 2.816-4.782 4.036-8.15 4.036-5.556 0-9.633-4.148-9.633-9.333 0-5.223 4.186-9.374 9.67-9.374 3.111 0 5.889 1.447 7.556 3.593l-3.408 3c-.962-1.258-2.405-2.147-4.148-2.147-2.779 0-4.853 2.187-4.853 4.928 0 2.815 2.039 4.89 4.965 4.89 1.962 0 3.517-1.188 4.296-2.372l3.705 2.779zm10.83-6.224L100 26.859h-6.484l-7.596-7.782v7.782h-4.813V.927h4.813V14.71l6.186-5.818h6.783l-8.781 8.076zM0 3.706a3.149 3.149 0 1 1 6.298 0 3.149 3.149 0 0 1-6.298 0z" fill="#fff"/></svg>