<svg width="240" height="80" fill="none" xmlns="http://www.w3.org/2000/svg"><path fill="#fff" d="M0 0h240v80H0z"/><g clip-path="url(#a)"><path d="M76.499 33.287H52.314l-7.446-22.996-7.489 22.996-24.185-.044 19.56 14.23-7.49 22.995 19.56-14.23 19.56 14.23-7.445-22.996L76.5 33.287Z" fill="#00B67A"/><path d="m58.613 52.67-1.674-5.198-12.07 8.767 13.744-3.569Z" fill="#005128"/></g><path d="M117 24.577h-9.169l-2.823-8.718-2.839 8.718L93 24.561l7.415 5.394-2.839 8.718 7.416-5.394 7.415 5.394-2.822-8.718L117 24.577ZM143.927 24.577h-9.169l-2.822-8.718-2.84 8.718-9.169-.016 7.416 5.394-2.839 8.718 7.415-5.394 7.415 5.394-2.822-8.718 7.415-5.378ZM170.855 24.577h-9.169l-2.823-8.718-2.839 8.718-9.169-.016 7.415 5.394-2.839 8.718 7.415-5.394 7.416 5.394-2.823-8.718 7.416-5.378ZM197.782 24.577h-9.169l-2.823-8.718-2.839 8.718-9.169-.016 7.415 5.394-2.839 8.718 7.416-5.394 7.415 5.394-2.822-8.718 7.415-5.378ZM224.927 24.577h-9.169l-2.822-8.718-2.84 8.718-9.169-.016 7.416 5.394-2.839 8.718 7.415-5.394 7.415 5.394-2.822-8.718 7.415-5.378Z" fill="#00B67A"/><path d="M93.716 60.068h5.62V62h2.687v-1.932h1.392v-2.216h-1.392v-7.488h-3.54l-4.767 7.511v2.193Zm5.676-2.216h-2.88v-.09l2.79-4.421h.09v4.511Zm6.973 4.313c.778 0 1.466-.66 1.477-1.477a1.5 1.5 0 0 0-1.477-1.46c-.818 0-1.489.653-1.477 1.46a1.467 1.467 0 0 0 1.477 1.477Zm7.372-.006c2.727 0 4.665-1.443 4.659-3.466.006-1.432-.932-2.454-2.727-2.665v-.09c1.347-.194 2.301-1.097 2.295-2.404.006-1.898-1.71-3.33-4.204-3.33-2.511 0-4.341 1.455-4.364 3.523h2.688c.023-.795.738-1.33 1.676-1.33.892 0 1.5.54 1.494 1.319.006.807-.71 1.364-1.744 1.364h-1.131v2h1.131c1.176 0 1.943.58 1.932 1.397.011.824-.693 1.398-1.693 1.398-.995 0-1.728-.528-1.756-1.295h-2.83c.023 2.102 1.915 3.58 4.574 3.58Z" fill="#000"/><path d="M128.466 57.185c-.213-1.108-1.1-1.816-2.634-1.816-1.576 0-2.65.776-2.646 1.986-.004.955.584 1.585 1.841 1.845l1.116.235c.601.132.883.375.883.745 0 .448-.486.785-1.219.785-.708 0-1.168-.307-1.3-.895l-1.504.145c.192 1.201 1.202 1.913 2.808 1.913 1.636 0 2.791-.848 2.796-2.088-.005-.934-.606-1.505-1.841-1.773l-1.117-.239c-.665-.149-.929-.379-.925-.758-.004-.443.486-.75 1.13-.75.711 0 1.086.388 1.206.818l1.406-.153Zm4.268 4.943c1.645 0 2.693-.976 2.804-2.365h-1.475c-.132.703-.639 1.108-1.317 1.108-.963 0-1.585-.806-1.585-2.144 0-1.32.635-2.113 1.585-2.113.742 0 1.198.477 1.317 1.108h1.475c-.107-1.42-1.215-2.353-2.813-2.353-1.917 0-3.128 1.385-3.128 3.384 0 1.981 1.181 3.375 3.137 3.375Zm6.925 0c1.918 0 3.137-1.351 3.137-3.375 0-2.029-1.219-3.384-3.137-3.384-1.917 0-3.136 1.355-3.136 3.384 0 2.024 1.219 3.375 3.136 3.375Zm.009-1.236c-1.061 0-1.581-.946-1.581-2.143 0-1.198.52-2.157 1.581-2.157 1.044 0 1.564.96 1.564 2.157s-.52 2.143-1.564 2.143ZM144.105 62h1.543v-3.848c0-.831.626-1.419 1.474-1.419.26 0 .584.047.716.09v-1.42a3.698 3.698 0 0 0-.554-.042c-.75 0-1.376.426-1.615 1.184h-.068v-1.09h-1.496V62Zm7.386.128c1.526 0 2.574-.746 2.847-1.884l-1.441-.162c-.208.554-.72.844-1.385.844-.997 0-1.657-.656-1.67-1.777h4.56v-.473c0-2.297-1.381-3.307-2.992-3.307-1.875 0-3.098 1.377-3.098 3.397 0 2.054 1.206 3.362 3.179 3.362Zm-1.645-4.019c.047-.835.665-1.538 1.585-1.538.887 0 1.483.648 1.492 1.538h-3.077Zm7.672 2.698h-1.364l-.03.477c-.072 1.155-.375 2.331-.498 2.847h1.039c.205-.537.678-1.782.797-2.855l.056-.47Zm4.26-.426h4.163V62h1.509v-1.62h1.116v-1.299h-1.116v-5.808h-1.969l-3.703 5.85v1.258Zm4.18-1.3h-2.561v-.068l2.493-3.95h.068v4.018Zm4.29 2.919h1.64l3.708-7.376v-1.351h-5.945v1.32h4.308v.06L170.248 62Zm9.716 0h1.543v-3.848c0-.831.627-1.419 1.475-1.419.259 0 .583.047.715.09v-1.42a3.688 3.688 0 0 0-.554-.042c-.75 0-1.376.426-1.615 1.184h-.068v-1.09h-1.496V62Zm7.386.128c1.526 0 2.574-.746 2.847-1.884l-1.44-.162c-.209.554-.72.844-1.385.844-.997 0-1.658-.656-1.671-1.777h4.56v-.473c0-2.297-1.381-3.307-2.991-3.307-1.875 0-3.098 1.377-3.098 3.397 0 2.054 1.205 3.362 3.178 3.362Zm-1.644-4.019c.046-.835.664-1.538 1.585-1.538.886 0 1.483.648 1.491 1.538h-3.076Zm11.519-2.654h-1.64l-1.509 4.862h-.068l-1.504-4.862h-1.645L193.19 62h1.704l2.331-6.545ZM198.293 62h1.542v-6.545h-1.542V62Zm.775-7.474c.49 0 .891-.375.891-.836 0-.464-.401-.84-.891-.84-.494 0-.895.376-.895.84 0 .46.401.836.895.836Zm5.251 7.602c1.526 0 2.574-.746 2.847-1.884l-1.441-.162c-.208.554-.72.844-1.384.844-.998 0-1.658-.656-1.671-1.777h4.56v-.473c0-2.297-1.381-3.307-2.992-3.307-1.875 0-3.098 1.377-3.098 3.397 0 2.054 1.206 3.362 3.179 3.362Zm-1.645-4.019c.047-.835.665-1.538 1.586-1.538.886 0 1.483.648 1.491 1.538h-3.077ZM209.85 62h1.611l1.228-4.423h.089L214.005 62h1.607l1.854-6.545h-1.577l-1.134 4.576h-.064l-1.176-4.576h-1.555l-1.176 4.602h-.06l-1.15-4.602h-1.573L209.85 62Zm13.866-4.815c-.213-1.108-1.1-1.816-2.634-1.816-1.576 0-2.65.776-2.646 1.986-.004.955.584 1.585 1.841 1.845l1.116.235c.601.132.883.375.883.745 0 .448-.486.785-1.219.785-.708 0-1.168-.307-1.3-.895l-1.504.145c.192 1.201 1.202 1.913 2.808 1.913 1.636 0 2.791-.848 2.796-2.088-.005-.934-.606-1.505-1.841-1.773l-1.117-.239c-.665-.149-.929-.379-.925-.758-.004-.443.486-.75 1.13-.75.711 0 1.086.388 1.206.818l1.406-.153Z" fill="#6E7D87"/><defs><clipPath id="a"><path fill="#fff" transform="translate(13 8)" d="M0 0h64v64H0z"/></clipPath></defs></svg>